<mxfile host="Electron" modified="2023-08-07T15:21:54.558Z" agent="Mozilla/5.0 (Windows NT 10.0; Win64; x64) AppleWebKit/537.36 (KHTML, like Gecko) draw.io/21.6.5 Chrome/114.0.5735.243 Electron/25.3.1 Safari/537.36" etag="v40G9VVKc1cCY-_fzmTu" version="21.6.5" type="device">
  <diagram name="Seite-1" id="j8HhosRpMgPHARPPf4BZ">
    <mxGraphModel dx="630" dy="379" grid="1" gridSize="10" guides="1" tooltips="1" connect="1" arrows="1" fold="1" page="1" pageScale="1" pageWidth="827" pageHeight="1169" math="0" shadow="0">
      <root>
        <mxCell id="0" />
        <mxCell id="1" parent="0" />
        <mxCell id="rhbxIwn_uv5ldd_zecec-3" value="" style="endArrow=none;html=1;rounded=1;strokeWidth=2;shadow=1;fillColor=#d80073;strokeColor=#A50040;" edge="1" parent="1">
          <mxGeometry width="50" height="50" relative="1" as="geometry">
            <mxPoint x="541.6666666666667" y="341.66727272727275" as="sourcePoint" />
            <mxPoint x="348.3333333333333" y="341.66727272727275" as="targetPoint" />
          </mxGeometry>
        </mxCell>
        <mxCell id="rhbxIwn_uv5ldd_zecec-13" value="adyacente" style="edgeLabel;html=1;align=center;verticalAlign=middle;resizable=0;points=[];fontSize=18;" vertex="1" connectable="0" parent="rhbxIwn_uv5ldd_zecec-3">
          <mxGeometry x="-0.1531" relative="1" as="geometry">
            <mxPoint y="18" as="offset" />
          </mxGeometry>
        </mxCell>
        <mxCell id="rhbxIwn_uv5ldd_zecec-5" value="" style="endArrow=none;html=1;rounded=1;strokeWidth=2;endSize=6;jumpStyle=none;shadow=1;fillColor=#1ba1e2;strokeColor=#006EAF;" edge="1" parent="1">
          <mxGeometry width="50" height="50" relative="1" as="geometry">
            <mxPoint x="348.3333333333333" y="341.66727272727275" as="sourcePoint" />
            <mxPoint x="541.6666666666667" y="83.89272727272729" as="targetPoint" />
          </mxGeometry>
        </mxCell>
        <mxCell id="rhbxIwn_uv5ldd_zecec-11" value="&lt;font style=&quot;font-size: 18px;&quot;&gt;hipotenusa&lt;/font&gt;" style="edgeLabel;html=1;align=center;verticalAlign=middle;resizable=0;points=[];rotation=-52.3;fontSize=18;" vertex="1" connectable="0" parent="rhbxIwn_uv5ldd_zecec-5">
          <mxGeometry x="-0.0101" relative="1" as="geometry">
            <mxPoint x="-24" y="-1" as="offset" />
          </mxGeometry>
        </mxCell>
        <mxCell id="rhbxIwn_uv5ldd_zecec-6" value="" style="endArrow=none;html=1;rounded=1;strokeWidth=2;fillColor=#1ba1e2;strokeColor=#006EAF;" edge="1" parent="1">
          <mxGeometry width="50" height="50" relative="1" as="geometry">
            <mxPoint x="541.6666666666667" y="341.66727272727275" as="sourcePoint" />
            <mxPoint x="541.6666666666667" y="83.89272727272729" as="targetPoint" />
          </mxGeometry>
        </mxCell>
        <mxCell id="rhbxIwn_uv5ldd_zecec-12" value="opuesto" style="edgeLabel;html=1;align=center;verticalAlign=middle;resizable=0;points=[];rotation=-90;fontSize=18;" vertex="1" connectable="0" parent="rhbxIwn_uv5ldd_zecec-6">
          <mxGeometry x="-0.1011" y="-1" relative="1" as="geometry">
            <mxPoint x="17" as="offset" />
          </mxGeometry>
        </mxCell>
        <mxCell id="rhbxIwn_uv5ldd_zecec-7" value="" style="endArrow=none;html=1;rounded=1;shadow=1;" edge="1" parent="1">
          <mxGeometry width="50" height="50" relative="1" as="geometry">
            <mxPoint x="493.33333333333337" y="293.33454545454543" as="sourcePoint" />
            <mxPoint x="541.6666666666667" y="293.33454545454543" as="targetPoint" />
          </mxGeometry>
        </mxCell>
        <mxCell id="rhbxIwn_uv5ldd_zecec-8" value="" style="endArrow=none;html=1;rounded=1;shadow=1;" edge="1" parent="1">
          <mxGeometry width="50" height="50" relative="1" as="geometry">
            <mxPoint x="493.33333333333337" y="341.66727272727275" as="sourcePoint" />
            <mxPoint x="493.33333333333337" y="293.33454545454543" as="targetPoint" />
          </mxGeometry>
        </mxCell>
        <mxCell id="rhbxIwn_uv5ldd_zecec-9" value="" style="endArrow=none;html=1;rounded=1;strokeWidth=1;dashed=1;endSize=6;jumpStyle=none;shadow=1;" edge="1" parent="1">
          <mxGeometry width="50" height="50" relative="1" as="geometry">
            <mxPoint x="412.77777777777777" y="341.66727272727275" as="sourcePoint" />
            <mxPoint x="388.6111111111111" y="288.50127272727275" as="targetPoint" />
            <Array as="points">
              <mxPoint x="414.3888888888889" y="328.77854545454545" />
              <mxPoint x="411.1666666666667" y="314.2787272727273" />
              <mxPoint x="404.72222222222223" y="301.39" />
            </Array>
          </mxGeometry>
        </mxCell>
        <mxCell id="rhbxIwn_uv5ldd_zecec-10" value="" style="endArrow=none;html=1;rounded=1;strokeWidth=1;dashed=1;endSize=6;jumpStyle=none;shadow=1;" edge="1" parent="1">
          <mxGeometry width="50" height="50" relative="1" as="geometry">
            <mxPoint x="419.22222222222223" y="340.0561818181818" as="sourcePoint" />
            <mxPoint x="391.83333333333337" y="283.668" as="targetPoint" />
            <Array as="points">
              <mxPoint x="419.22222222222223" y="325.55636363636364" />
              <mxPoint x="416" y="311.05654545454547" />
              <mxPoint x="409.55555555555554" y="298.1678181818182" />
            </Array>
          </mxGeometry>
        </mxCell>
        <mxCell id="rhbxIwn_uv5ldd_zecec-14" value="&lt;font size=&quot;1&quot; face=&quot;Times New Roman&quot; style=&quot;&quot;&gt;&lt;i style=&quot;font-size: 20px;&quot;&gt;A&lt;/i&gt;&lt;/font&gt;" style="text;html=1;align=center;verticalAlign=middle;resizable=0;points=[];autosize=1;strokeColor=none;fillColor=none;" vertex="1" parent="1">
          <mxGeometry x="300" y="325.55636363636364" width="40" height="40" as="geometry" />
        </mxCell>
        <mxCell id="rhbxIwn_uv5ldd_zecec-15" value="&lt;font size=&quot;1&quot; face=&quot;Times New Roman&quot; style=&quot;&quot;&gt;&lt;i style=&quot;font-size: 20px;&quot;&gt;C&lt;/i&gt;&lt;/font&gt;" style="text;html=1;align=center;verticalAlign=middle;resizable=0;points=[];autosize=1;strokeColor=none;fillColor=none;" vertex="1" parent="1">
          <mxGeometry x="525.5555555555555" y="325.55636363636364" width="40" height="40" as="geometry" />
        </mxCell>
        <mxCell id="rhbxIwn_uv5ldd_zecec-16" value="&lt;font size=&quot;1&quot; face=&quot;Times New Roman&quot; style=&quot;&quot;&gt;&lt;i style=&quot;font-size: 20px;&quot;&gt;B&lt;/i&gt;&lt;/font&gt;" style="text;html=1;align=center;verticalAlign=middle;resizable=0;points=[];autosize=1;strokeColor=none;fillColor=none;" vertex="1" parent="1">
          <mxGeometry x="525.5555555555555" y="35.56" width="40" height="40" as="geometry" />
        </mxCell>
      </root>
    </mxGraphModel>
  </diagram>
</mxfile>
